PathFileType  4	(X/Y/Z) C:\Users\antoi\Documents\MyRepositories\mobilecap\ResultsAnalysis
DataRate	CameraRate	NumFrames	NumMarkers	Units	OrigDataRate	OrigDataStartFrame	OrigNumFrames
100.0	100.0	6	51	mm	100.0	34	268
Frame#	Time	r_knee			r_shank_antsup			r_ankle			r_calc			r_5meta			r_toe			L_knee			L_shank_antsup			L_ankle			L_calc			L_5meta			L_toe			r_sh2			r_sh3			r_sh4			L_sh2			L_sh3			r_thigh1			r_thigh2			r_thigh3			r_thigh4			r_thigh5			L_thigh1			L_thigh2			L_thigh3			L_thigh4			r.ASIS			r.PSIS			L.ASIS			L.PSIS			C7			R_Shoulder			L_Shoulder			R_Sternum			L_Sternum			R_humerus			R_elbow_med			R_elbow_lat			R_forearm			R_wrist_radius			R_wrist_ulna			L_humerus			L_elbow_med			L_elbow_lat			L_forearm			L_wrist_radius			L_wrist_ulna			R_HJC			L_HJC			R_HJC_reg			L_HJC_reg			
		X1	Y1	Z1	X2	Y2	Z2	X3	Y3	Z3	X4	Y4	Z4	X5	Y5	Z5	X6	Y6	Z6	X7	Y7	Z7	X8	Y8	Z8	X9	Y9	Z9	X10	Y10	Z10	X11	Y11	Z11	X12	Y12	Z12	X13	Y13	Z13	X14	Y14	Z14	X15	Y15	Z15	X16	Y16	Z16	X17	Y17	Z17	X18	Y18	Z18	X19	Y19	Z19	X20	Y20	Z20	X21	Y21	Z21	X22	Y22	Z22	X23	Y23	Z23	X24	Y24	Z24	X25	Y25	Z25	X26	Y26	Z26	X27	Y27	Z27	X28	Y28	Z28	X29	Y29	Z29	X30	Y30	Z30	X31	Y31	Z31	X32	Y32	Z32	X33	Y33	Z33	X34	Y34	Z34	X35	Y35	Z35	X36	Y36	Z36	X37	Y37	Z37	X38	Y38	Z38	X39	Y39	Z39	X40	Y40	Z40	X41	Y41	Z41	X42	Y42	Z42	X43	Y43	Z43	X44	Y44	Z44	X45	Y45	Z45	X46	Y46	Z46	X47	Y47	Z47	X48	Y48	Z48	X49	Y49	Z49	X50	Y50	Z50	X51	Y51	Z51	

34	0.33000000	-1118.99002	835.74237	-463.92740	-1106.93758	750.84124	-447.76172	-1252.18547	415.11310	-474.76373	-1310.48662	360.88173	-526.99943	-1116.02075	353.38284	-428.76136	-1078.00185	380.97461	-485.37811	-1122.53853	828.42893	-754.37139	-1113.88661	706.27799	-766.53572	-1248.32105	407.33355	-757.22912	-1318.58814	357.51190	-721.29446	-1099.36376	349.80393	-795.56281	-1075.29283	373.62395	-730.88621	-1141.34179	642.75522	-444.45270	-1177.31387	772.68105	-435.69311	-1220.29347	664.28745	-435.82377	-1195.27357	738.22547	-789.47861	-1227.01023	618.00336	-785.50777	-1117.57248	1156.21759	-428.69817	-1083.33724	1051.72287	-442.94509	-1127.41062	1007.91631	-418.62341	-1224.16594	1116.73611	-429.53070	-1180.86775	1008.16075	-431.43787	-1103.67573	1157.52606	-777.54586	-1070.85384	1023.44240	-769.04847	-1218.08781	1126.93679	-790.61056	-1175.62740	994.72639	-787.64985	-1123.56864	1331.54145	-473.09537	-1299.62643	1405.32848	-562.58874	-1108.32425	1325.43638	-731.04355	-1295.15629	1403.31656	-669.58256	-1149.88907	1902.74163	-623.30464	-1128.84251	1866.26363	-447.61392	-1084.18332	1860.07815	-774.43068	-1028.88502	1796.29763	-568.91399	-1021.88738	1789.83628	-627.59921	-1289.50651	1673.11871	-329.15022	-1367.41836	1596.41269	-393.54895	-1355.97134	1614.06040	-308.84917	-1357.51070	1456.78641	-265.70223	-1365.91461	1341.08773	-258.05885	-1400.89702	1360.24844	-236.30950	-1218.10338	1660.40072	-894.34598	-1312.53081	1605.82086	-851.18238	-1286.49686	1603.01930	-914.96670	-1291.35553	1430.04662	-945.97447	-1291.52135	1328.24446	-939.22801	-1323.49191	1337.16709	-963.34024	-1221.30743	1270.37724	-484.75552	-1204.94851	1264.63807	-714.46989	-1206.74028	1270.79451	-512.08810	-1199.62396	1267.59441	-682.49863	
35	0.34000000	-1114.36032	834.43559	-464.21287	-1102.69118	749.33859	-448.12021	-1251.37375	414.95068	-475.37643	-1310.14643	361.23431	-528.03260	-1114.98328	352.88407	-430.97360	-1077.57724	380.75042	-487.78992	-1119.16851	827.30543	-754.10653	-1111.07436	705.38605	-766.77484	-1247.97807	407.47214	-756.94976	-1318.38621	357.66792	-721.15905	-1099.25075	349.75304	-795.61854	-1075.19854	373.58915	-730.94655	-1137.92191	641.61380	-444.91933	-1172.80393	771.68616	-435.14366	-1216.73840	663.95982	-435.32763	-1192.34517	737.94708	-788.98866	-1225.09470	617.99399	-785.17188	-1117.43857	1154.70569	-427.92143	-1081.81269	1050.71557	-442.15611	-1125.07775	1006.21959	-418.19551	-1223.43458	1113.55730	-428.96655	-1178.51983	1005.51140	-431.18452	-1104.47130	1156.39111	-776.59988	-1069.73532	1022.80410	-768.28096	-1218.42437	1124.39945	-790.08364	-1174.13464	992.89604	-787.23446	-1124.70413	1328.79380	-472.77384	-1301.18399	1404.00780	-560.29964	-1110.82079	1322.96812	-730.11945	-1296.71800	1401.60333	-668.37988	-1144.09045	1899.55670	-621.76306	-1122.77414	1863.17699	-446.07895	-1078.80931	1856.06089	-773.02021	-1024.13868	1791.81988	-567.36866	-1017.44475	1785.13615	-626.24971	-1290.02727	1676.04140	-327.58796	-1369.00748	1600.58887	-392.42298	-1358.34689	1618.79152	-307.71804	-1364.04382	1462.05838	-263.06410	-1375.03580	1346.59889	-254.69696	-1409.94088	1366.81546	-233.42237	-1218.50027	1661.39960	-893.95018	-1314.36314	1609.02701	-850.84980	-1288.54397	1606.13660	-914.86523	-1296.67792	1433.58421	-947.44855	-1298.59972	1331.63090	-941.16990	-1330.80925	1341.18947	-964.53231	-1222.91818	1268.27980	-483.58910	-1207.74643	1262.66927	-713.38851	-1208.88411	1269.33200	-511.48567	-1201.86551	1265.55538	-681.43777	
36	0.35000000	-1110.12830	832.78070	-464.46243	-1098.91599	747.46799	-448.76664	-1250.34795	414.64194	-476.17463	-1309.81524	361.16905	-528.70330	-1113.53675	352.73675	-433.06223	-1076.89055	380.25309	-490.45301	-1115.47668	826.05302	-753.72396	-1108.10148	704.35675	-767.02959	-1247.67862	407.75227	-756.73700	-1318.40935	357.83610	-720.89477	-1099.15100	349.66773	-795.62509	-1075.07630	373.55565	-731.01382	-1134.89156	640.17099	-445.55675	-1168.89609	770.49523	-434.54509	-1213.49534	662.86523	-435.10783	-1189.19227	737.61769	-788.32329	-1222.24508	618.28878	-785.58095	-1117.41736	1152.74572	-427.43420	-1080.75781	1049.34625	-441.49158	-1123.22087	1004.35873	-417.78587	-1222.98461	1110.38732	-428.20412	-1176.64193	1002.75645	-430.77773	-1105.32992	1155.12636	-776.12330	-1068.49968	1021.98435	-767.69801	-1218.83816	1121.39375	-789.39046	-1172.53582	990.70908	-786.64198	-1125.73848	1325.64084	-472.47915	-1302.72579	1402.13258	-558.32069	-1113.44084	1320.34481	-729.26835	-1298.39898	1399.57987	-667.15660	-1138.19272	1895.96200	-620.16123	-1116.31140	1859.63429	-444.36196	-1073.32017	1851.65563	-771.50576	-1019.52406	1786.77868	-566.13202	-1012.89308	1780.02019	-624.84681	-1290.08358	1678.63212	-325.96880	-1369.81517	1604.49858	-391.49685	-1360.24750	1623.28918	-306.77409	-1370.08394	1467.18442	-260.43276	-1383.68556	1351.96192	-251.63955	-1418.51268	1373.17762	-231.02404	-1218.53516	1662.10699	-893.39933	-1315.78749	1611.99837	-850.43035	-1290.15963	1608.91376	-914.47463	-1301.53132	1436.89307	-948.81559	-1305.19564	1334.83931	-942.80702	-1337.68995	1345.03975	-965.44868	-1224.46221	1265.72148	-482.58971	-1210.50631	1260.42821	-712.47403	-1210.84374	1267.24151	-510.93818	-1204.10411	1263.26279	-680.46901	
37	0.36000000	-1106.68584	830.73062	-464.70578	-1095.68962	745.28991	-449.36899	-1249.18425	414.16163	-477.06914	-1309.86974	360.71574	-528.17895	-1112.46223	352.55986	-434.82487	-1076.07984	379.38298	-492.77416	-1111.53560	824.50482	-752.98926	-1105.05280	703.04488	-766.79300	-1247.42516	407.98676	-756.66876	-1318.14242	358.12016	-720.80780	-1099.04892	349.56591	-795.76020	-1074.88318	373.47758	-731.06253	-1132.34791	638.31577	-446.45525	-1165.43371	768.70279	-434.23272	-1210.66961	661.21873	-435.12081	-1185.87294	737.23588	-787.51728	-1219.57027	618.52565	-785.71565	-1117.69021	1150.32323	-426.92831	-1079.91423	1047.59207	-441.25018	-1121.87997	1002.23907	-417.28027	-1222.87750	1107.10520	-427.47163	-1175.31190	1000.02042	-430.03647	-1106.20844	1153.64109	-775.84639	-1067.22631	1021.00007	-767.33018	-1219.28682	1117.86779	-788.25931	-1170.78933	988.05701	-785.77018	-1126.72836	1322.14290	-472.15400	-1303.75263	1399.54703	-556.97154	-1116.19717	1317.46280	-728.51980	-1300.31314	1397.18257	-665.51670	-1132.13308	1891.83435	-618.28873	-1109.47198	1855.53000	-442.51266	-1067.74294	1846.77010	-769.73546	-1015.08652	1781.19181	-565.27286	-1008.26861	1774.41185	-623.26538	-1289.58515	1680.76460	-324.48025	-1370.30891	1608.10981	-390.54992	-1361.54355	1627.44494	-305.83524	-1375.58021	1472.10476	-257.90950	-1391.70097	1357.11412	-248.74868	-1426.30475	1379.31698	-228.70129	-1218.16123	1662.54078	-892.92054	-1316.81693	1614.62604	-849.82293	-1291.32407	1611.36086	-914.09374	-1306.00252	1439.80873	-949.90766	-1311.25255	1337.83062	-943.93885	-1343.98571	1348.64472	-966.09867	-1225.81209	1262.69625	-481.68045	-1213.20305	1257.79794	-711.65070	-1212.17048	1264.45666	-509.94885	-1206.81301	1260.76982	-679.19305	
38	0.37000000	-1104.12838	828.40960	-465.16942	-1093.02258	742.92354	-449.72963	-1248.30352	413.44609	-477.66625	-1309.88769	360.20018	-527.62005	-1112.06511	351.96051	-435.65508	-1075.49070	378.36330	-493.82583	-1107.33056	822.81791	-752.30778	-1101.83236	701.58042	-766.32733	-1247.10172	408.09268	-756.58972	-1317.81029	358.37693	-720.65324	-1098.93794	349.36521	-795.88173	-1074.67382	373.33930	-731.07066	-1130.25116	636.09694	-447.30328	-1162.51001	766.61803	-434.30398	-1208.37487	659.39568	-435.31897	-1182.35432	736.84259	-786.78005	-1217.36286	618.52860	-785.06648	-1118.13817	1147.74273	-426.31946	-1079.01323	1045.27426	-441.29572	-1120.97228	999.68448	-416.65670	-1222.97514	1103.58870	-426.96220	-1174.43744	997.01267	-429.43822	-1107.13929	1151.80322	-775.44317	-1065.90000	1019.84686	-766.94094	-1219.71466	1114.01650	-786.90401	-1168.88417	985.07828	-784.85179	-1127.75057	1318.29181	-471.81953	-1304.55971	1396.64773	-555.55139	-1118.83329	1314.22432	-728.17098	-1302.28664	1394.44909	-663.66020	-1125.92022	1887.16289	-616.16220	-1102.27567	1850.70738	-440.51146	-1061.97693	1841.33232	-767.92135	-1010.52799	1775.04023	-564.17828	-1003.59994	1768.23101	-621.50976	-1288.41845	1682.31660	-323.12787	-1370.88632	1611.23231	-389.49754	-1362.10154	1631.07468	-304.86452	-1380.37987	1476.71314	-255.56417	-1398.73453	1362.01910	-245.69481	-1432.83381	1385.23649	-225.92012	-1217.37898	1662.56929	-892.28282	-1317.38445	1616.78536	-848.89236	-1292.01321	1613.38911	-913.56772	-1310.41500	1441.99375	-949.71344	-1316.64075	1340.48200	-944.65018	-1349.63633	1351.78506	-966.10910	-1227.02985	1259.29169	-480.82087	-1215.93625	1254.86877	-710.87867	-1213.33940	1261.33055	-508.77670	-1209.77969	1257.88998	-678.01944	
39	0.38000000	-1102.03669	826.11078	-465.61928	-1090.72984	740.50754	-449.97379	-1248.10764	412.61760	-477.54661	-1309.80264	359.66412	-527.46503	-1112.14074	351.12000	-435.31813	-1075.39419	377.64955	-493.33888	-1102.93655	821.18947	-751.97022	-1098.36500	700.20699	-766.13132	-1246.68722	408.16465	-756.32635	-1317.70328	358.56236	-720.25255	-1098.84340	348.98636	-795.55969	-1074.51017	373.16326	-730.98690	-1128.60755	633.84556	-447.79820	-1159.98283	764.75103	-434.66178	-1206.59492	657.78051	-435.61895	-1178.66165	736.37271	-786.10702	-1215.11208	618.40862	-784.10664	-1118.59457	1145.00803	-425.65473	-1078.52097	1042.36703	-441.12944	-1120.34821	996.65268	-416.14436	-1223.07747	1099.87450	-426.44284	-1173.74914	993.56669	-429.21928	-1108.18535	1149.67539	-774.86701	-1064.51465	1018.48530	-766.38777	-1220.13341	1109.93863	-785.60164	-1166.93457	981.83471	-783.88735	-1128.83204	1314.03289	-471.53116	-1305.50998	1393.70213	-553.80620	-1121.27913	1310.51218	-728.24114	-1304.16676	1391.41546	-661.94756	-1119.58379	1882.07287	-614.05725	-1094.77161	1845.05432	-438.47016	-1056.01209	1835.56722	-766.10715	-1005.68561	1768.29634	-562.51064	-998.88814	1761.51997	-619.74005	-1286.51167	1682.96636	-321.85172	-1370.49605	1613.45773	-388.43146	-1361.88012	1633.96170	-303.91037	-1384.28313	1480.72646	-253.40141	-1404.62836	1366.46954	-242.40388	-1438.22788	1390.58381	-223.03411	-1216.18845	1661.99420	-891.19432	-1317.30643	1618.29856	-847.69459	-1292.15811	1614.78345	-912.65827	-1314.60876	1443.40476	-948.17649	-1321.30296	1342.68304	-945.08130	-1354.68143	1354.21571	-965.23504	-1228.30200	1255.58677	-480.03669	-1218.78204	1251.64658	-710.17436	-1214.82333	1258.06460	-507.76972	-1212.71446	1254.48185	-677.23854	
